<svg width="185" height="69" viewBox="0 0 185 69" fill="none" xmlns="http://www.w3.org/2000/svg">
<g clip-path="url(#clip0_227_45)">
<path d="M2.444 56.654H0.624C0.476667 56.654 0.346667 56.6063 0.234 56.511C0.13 56.4157 0.078 56.2943 0.078 56.147C0.078 55.9997 0.134333 55.8783 0.247 55.783C0.359667 55.6877 0.494 55.64 0.65 55.64H5.408C5.78933 55.64 5.98 55.809 5.98 56.147C5.98 56.485 5.80667 56.654 5.46 56.654H3.614V64.61C3.614 64.7833 3.55767 64.9263 3.445 65.039C3.33233 65.1517 3.18933 65.208 3.016 65.208C2.86 65.208 2.72567 65.1473 2.613 65.026C2.50033 64.9047 2.444 64.766 2.444 64.61V56.654ZM18.7859 64.194C19.4879 64.194 20.1466 63.9513 20.7619 63.466C20.9352 63.3273 21.0826 63.258 21.2039 63.258C21.5159 63.258 21.6719 63.4227 21.6719 63.752C21.6719 63.856 21.5939 63.9947 21.4379 64.168C21.1346 64.4973 20.7272 64.7573 20.2159 64.948C19.7479 65.1213 19.2712 65.208 18.7859 65.208C17.7632 65.208 16.9572 64.8397 16.3679 64.103C15.8132 63.4183 15.5359 62.556 15.5359 61.516C15.5359 60.528 15.8262 59.696 16.4069 59.02C17.0222 58.3093 17.8152 57.954 18.7859 57.954C19.6526 57.954 20.3762 58.2877 20.9569 58.955C21.5029 59.5963 21.7759 60.359 21.7759 61.243C21.7759 61.7717 21.5202 62.036 21.0089 62.036H16.7059C16.7059 62.6253 16.9052 63.1323 17.3039 63.557C17.7112 63.9817 18.2052 64.194 18.7859 64.194ZM16.7059 61.152H20.6059C20.6059 60.5453 20.4586 60.0427 20.1639 59.644C19.8346 59.1933 19.3752 58.968 18.7859 58.968C18.1966 58.968 17.7026 59.1847 17.3039 59.618C16.9052 60.0427 16.7059 60.554 16.7059 61.152ZM32.8645 61.581C32.8645 60.6017 33.1418 59.7653 33.6965 59.072C34.2858 58.3267 35.0572 57.954 36.0105 57.954C36.4005 57.954 36.7905 58.019 37.1805 58.149C37.7005 58.3223 37.9605 58.5607 37.9605 58.864C37.9605 59.1933 37.8175 59.358 37.5315 59.358C37.3408 59.358 37.1285 59.2973 36.8945 59.176C36.6605 59.0547 36.3832 58.994 36.0625 58.994C35.4298 58.994 34.9228 59.2757 34.5415 59.839C34.2035 60.3417 34.0345 60.9223 34.0345 61.581C34.0345 62.3177 34.1862 62.92 34.4895 63.388C34.8448 63.9427 35.3692 64.22 36.0625 64.22C36.3398 64.22 36.6518 64.1377 36.9985 63.973C37.3452 63.7997 37.5445 63.713 37.5965 63.713C37.9258 63.713 38.0905 63.882 38.0905 64.22C38.0905 64.428 37.9605 64.6143 37.7005 64.779C37.2585 65.065 36.7125 65.208 36.0625 65.208C35.0398 65.208 34.2425 64.8527 33.6705 64.142C33.1332 63.4747 32.8645 62.621 32.8645 61.581ZM49.3891 64.61V55.458C49.3891 55.2847 49.4411 55.1373 49.5451 55.016C49.6491 54.8947 49.7878 54.834 49.9611 54.834C50.3598 54.834 50.5591 55.042 50.5591 55.458L50.5851 58.89C51.0358 58.266 51.6685 57.954 52.4831 57.954C53.2545 57.954 53.8655 58.1967 54.3161 58.682C54.7755 59.1673 55.0051 59.8 55.0051 60.58V64.61C55.0051 65.0087 54.8058 65.208 54.4071 65.208C54.2511 65.208 54.1168 65.1473 54.0041 65.026C53.8915 64.9047 53.8351 64.766 53.8351 64.61V60.736C53.8351 59.5573 53.3325 58.968 52.3271 58.968C51.8245 58.968 51.4041 59.1327 51.0661 59.462C50.7281 59.7913 50.5591 60.2073 50.5591 60.71V64.61C50.5591 65.0087 50.3598 65.208 49.9611 65.208C49.8051 65.208 49.6708 65.1473 49.5581 65.026C49.4455 64.9047 49.3891 64.766 49.3891 64.61ZM66.7936 64.61V58.656C66.7936 58.4827 66.8456 58.3353 66.9496 58.214C67.0536 58.0927 67.1923 58.032 67.3656 58.032C67.7643 58.032 67.9636 58.24 67.9636 58.656V58.864L67.9896 58.89C68.4663 58.266 69.1076 57.954 69.9136 57.954C70.6936 57.954 71.3046 58.2097 71.7466 58.721C72.1886 59.2237 72.4096 59.8693 72.4096 60.658V64.61C72.4096 64.9913 72.2103 65.182 71.8116 65.182C71.6469 65.182 71.5083 65.13 71.3956 65.026C71.2916 64.9133 71.2396 64.7747 71.2396 64.61V60.684C71.2396 60.1987 71.0879 59.7957 70.7846 59.475C70.4813 59.1543 70.0869 58.994 69.6016 58.994C69.1076 58.994 68.7089 59.1587 68.4056 59.488C68.1109 59.8087 67.9636 60.216 67.9636 60.71V64.61C67.9636 65.026 67.7729 65.234 67.3916 65.234C67.2183 65.234 67.0753 65.1733 66.9626 65.052C66.8499 64.9307 66.7936 64.7833 66.7936 64.61ZM86.9674 64.194C87.6434 64.194 88.1504 63.9167 88.4884 63.362C88.7744 62.9027 88.9174 62.3133 88.9174 61.594C88.9174 60.9007 88.77 60.3113 88.4754 59.826C88.12 59.254 87.6174 58.968 86.9674 58.968C86.3 58.968 85.793 59.2497 85.4464 59.813C85.1604 60.2897 85.0174 60.8833 85.0174 61.594C85.0174 62.3047 85.1604 62.894 85.4464 63.362C85.793 63.9167 86.3 64.194 86.9674 64.194ZM86.9674 65.208C86.014 65.208 85.2427 64.8353 84.6534 64.09C84.116 63.4053 83.8474 62.5733 83.8474 61.594C83.8474 60.606 84.116 59.7653 84.6534 59.072C85.234 58.3267 86.0054 57.954 86.9674 57.954C87.938 57.954 88.7137 58.3267 89.2944 59.072C89.823 59.7567 90.0874 60.5973 90.0874 61.594C90.0874 62.582 89.8187 63.414 89.2814 64.09C88.7007 64.8353 87.9294 65.208 86.9674 65.208ZM101.604 64.584V55.484C101.604 55.3107 101.656 55.1633 101.76 55.042C101.864 54.9207 102.003 54.86 102.176 54.86C102.575 54.86 102.774 55.0593 102.774 55.458V64.584C102.774 65 102.575 65.208 102.176 65.208C102.011 65.208 101.873 65.1473 101.76 65.026C101.656 64.896 101.604 64.7487 101.604 64.584ZM117.41 64.194C118.086 64.194 118.593 63.9167 118.931 63.362C119.217 62.9027 119.36 62.3133 119.36 61.594C119.36 60.9007 119.212 60.3113 118.918 59.826C118.562 59.254 118.06 58.968 117.41 58.968C116.742 58.968 116.235 59.2497 115.889 59.813C115.603 60.2897 115.46 60.8833 115.46 61.594C115.46 62.3047 115.603 62.894 115.889 63.362C116.235 63.9167 116.742 64.194 117.41 64.194ZM117.41 65.208C116.456 65.208 115.685 64.8353 115.096 64.09C114.558 63.4053 114.29 62.5733 114.29 61.594C114.29 60.606 114.558 59.7653 115.096 59.072C115.676 58.3267 116.448 57.954 117.41 57.954C118.38 57.954 119.156 58.3267 119.737 59.072C120.265 59.7567 120.53 60.5973 120.53 61.594C120.53 62.582 120.261 63.414 119.724 64.09C119.143 64.8353 118.372 65.208 117.41 65.208ZM132.826 61.594C132.826 62.2527 132.969 62.829 133.255 63.323C133.602 63.9037 134.083 64.194 134.698 64.194C135.331 64.194 135.834 63.921 136.206 63.375C136.536 62.8983 136.7 62.3307 136.7 61.672C136.7 60.9267 136.553 60.3157 136.258 59.839C135.894 59.2583 135.366 58.968 134.672 58.968C134.074 58.968 133.602 59.267 133.255 59.865C132.969 60.3677 132.826 60.944 132.826 61.594ZM136.596 64.194H136.57C136.137 64.87 135.504 65.208 134.672 65.208C133.745 65.208 132.995 64.818 132.423 64.038C131.912 63.336 131.656 62.504 131.656 61.542C131.656 60.5627 131.908 59.7393 132.41 59.072C132.956 58.3267 133.706 57.954 134.659 57.954C135.067 57.954 135.439 58.0363 135.777 58.201C136.159 58.383 136.436 58.6387 136.609 58.968H136.635C136.635 58.6647 136.653 58.461 136.687 58.357C136.765 58.1403 136.926 58.032 137.168 58.032C137.567 58.032 137.766 58.2313 137.766 58.63V64.636C137.766 65.6673 137.502 66.482 136.973 67.08C136.427 67.704 135.643 68.016 134.62 68.016C134.17 68.016 133.689 67.9293 133.177 67.756C132.579 67.5567 132.185 67.301 131.994 66.989C131.899 66.833 131.851 66.6943 131.851 66.573C131.851 66.313 131.999 66.183 132.293 66.183C132.467 66.183 132.731 66.3 133.086 66.534C133.554 66.846 134.083 67.002 134.672 67.002C135.444 67.002 135.977 66.7073 136.271 66.118C136.488 65.6933 136.596 65.052 136.596 64.194ZM149.616 64.61V58.578C149.616 58.4047 149.668 58.2573 149.772 58.136C149.876 58.0147 150.014 57.954 150.188 57.954C150.586 57.954 150.786 58.1533 150.786 58.552V64.61C150.786 65.0087 150.586 65.208 150.188 65.208C150.032 65.208 149.897 65.1473 149.785 65.026C149.672 64.9047 149.616 64.766 149.616 64.61ZM150.188 57.018C149.997 57.018 149.828 56.9443 149.681 56.797C149.542 56.6497 149.473 56.4807 149.473 56.29C149.473 56.0907 149.542 55.9217 149.681 55.783C149.819 55.6357 149.988 55.562 150.188 55.562C150.387 55.562 150.56 55.6357 150.708 55.783C150.855 55.9217 150.929 56.0907 150.929 56.29C150.929 56.4893 150.855 56.6627 150.708 56.81C150.56 56.9487 150.387 57.018 150.188 57.018ZM165.526 64.194C166.228 64.194 166.887 63.9513 167.502 63.466C167.676 63.3273 167.823 63.258 167.944 63.258C168.256 63.258 168.412 63.4227 168.412 63.752C168.412 63.856 168.334 63.9947 168.178 64.168C167.875 64.4973 167.468 64.7573 166.956 64.948C166.488 65.1213 166.012 65.208 165.526 65.208C164.504 65.208 163.698 64.8397 163.108 64.103C162.554 63.4183 162.276 62.556 162.276 61.516C162.276 60.528 162.567 59.696 163.147 59.02C163.763 58.3093 164.556 57.954 165.526 57.954C166.393 57.954 167.117 58.2877 167.697 58.955C168.243 59.5963 168.516 60.359 168.516 61.243C168.516 61.7717 168.261 62.036 167.749 62.036H163.446C163.446 62.6253 163.646 63.1323 164.044 63.557C164.452 63.9817 164.946 64.194 165.526 64.194ZM163.446 61.152H167.346C167.346 60.5453 167.199 60.0427 166.904 59.644C166.575 59.1933 166.116 58.968 165.526 58.968C164.937 58.968 164.443 59.1847 164.044 59.618C163.646 60.0427 163.446 60.554 163.446 61.152ZM182.244 57.954C182.643 57.954 183.106 58.0667 183.635 58.292C184.25 58.5607 184.558 58.864 184.558 59.202C184.558 59.332 184.506 59.4533 184.402 59.566C184.307 59.67 184.194 59.722 184.064 59.722C183.917 59.722 183.648 59.5963 183.258 59.345C182.868 59.0937 182.53 58.968 182.244 58.968C181.915 58.968 181.629 59.0373 181.386 59.176C181.091 59.3493 180.944 59.592 180.944 59.904C180.944 60.1293 181.07 60.3243 181.321 60.489C181.572 60.645 182.071 60.8703 182.816 61.165C183.492 61.4337 183.96 61.6807 184.22 61.906C184.567 62.2007 184.74 62.608 184.74 63.128C184.74 63.7953 184.458 64.3197 183.895 64.701C183.401 65.039 182.807 65.208 182.114 65.208C181.213 65.208 180.441 64.948 179.8 64.428C179.592 64.2633 179.488 64.0727 179.488 63.856C179.488 63.7173 179.536 63.596 179.631 63.492C179.726 63.388 179.843 63.336 179.982 63.336C180.103 63.336 180.385 63.479 180.827 63.765C181.269 64.051 181.689 64.194 182.088 64.194C182.461 64.194 182.781 64.129 183.05 63.999C183.379 63.8257 183.544 63.57 183.544 63.232C183.544 62.9547 183.427 62.7293 183.193 62.556C182.968 62.3827 182.508 62.1617 181.815 61.893C181.13 61.6243 180.654 61.3817 180.385 61.165C179.995 60.8617 179.8 60.45 179.8 59.93C179.8 59.2973 180.056 58.799 180.567 58.435C181.026 58.1143 181.585 57.954 182.244 57.954Z" fill="#FFA528"/>
</g>
<g clip-path="url(#clip1_227_45)">
<path d="M112.556 44.0042C112.11 44.9209 111.657 45.8349 111.189 46.7405C110.776 47.5347 110.126 47.9833 109.221 48C108.274 48.0195 107.557 47.5987 107.117 46.7628C106.724 46.0188 106.353 45.2581 106.021 44.4835L94.4398 20.8959C92.6185 17.1815 93.579 19.0317 91.7854 15.3006C91.5888 14.8882 91.4643 14.8297 91.1044 15.1557C89.8118 16.3288 88.2811 16.7691 86.5539 16.5378C83.7306 16.1588 81.7958 13.6176 82.0172 10.5719C82.2221 7.76872 84.5748 5.57297 87.3677 5.57854C90.1965 5.58412 92.5189 7.80216 92.6766 10.6583C92.6905 10.8952 92.7182 11.1181 92.8261 11.3382C96.5601 19.0094 97.5178 21.1104 101.252 28.7816C102.555 31.4594 103.87 34.1344 105.171 36.7872C105.387 36.829 105.393 36.6729 105.437 36.581C106.436 34.5162 107.435 32.4486 108.429 30.3811C108.747 29.7179 108.739 29.7123 108.036 29.5869C105.188 29.0798 103.076 26.6917 102.915 23.7938C102.744 20.7119 104.543 18.0258 107.341 17.1926C110.375 16.2898 113.47 17.7025 114.809 20.6033C116.11 23.4176 115.141 26.9202 112.57 28.6506C112.263 28.8568 112.061 29.1021 111.9 29.4309C110.264 32.8025 108.617 36.1658 106.973 39.5319C106.882 39.7186 106.732 39.8802 106.854 40.1282C107.615 41.6524 108.363 43.1822 109.179 44.8401C110.12 42.9202 110.995 41.1452 111.859 39.3675C117.295 28.1853 122.728 17.0003 128.17 5.82097C128.309 5.53953 128.295 5.24974 128.32 4.95994C128.538 2.29885 130.6 0.24521 133.291 0.0139313C135.81 -0.203415 138.182 1.54093 138.821 4.07663C139.43 6.50366 138.45 8.98363 136.377 10.2654C134.39 11.4943 131.749 11.2407 129.903 9.59665C129.532 9.26506 129.432 9.31801 129.233 9.72762C127.431 13.4727 125.61 17.2121 123.789 20.9488L112.556 43.9986V44.0042ZM112.634 23.2449C112.631 21.2915 111.064 19.6782 109.168 19.6726C107.225 19.6642 105.658 21.2609 105.653 23.2532C105.647 25.2762 107.172 26.8701 109.116 26.8757C111.1 26.8812 112.636 25.2957 112.631 23.2476L112.634 23.2449ZM130.991 5.51445C130.985 7.08603 132.123 8.24521 133.667 8.23964C135.14 8.23406 136.253 7.0916 136.272 5.56182C136.291 4.02647 135.112 2.8032 133.609 2.79763C132.106 2.79206 130.999 3.94009 130.994 5.51445H130.991ZM89.9806 11.1125C89.9917 9.58551 88.8513 8.39568 87.3594 8.37617C85.873 8.35667 84.7243 9.52978 84.716 11.0791C84.7077 12.6172 85.837 13.7987 87.3345 13.8126C88.8236 13.8265 89.9723 12.6562 89.9834 11.1125H89.9806Z" fill="#FFA528"/>
<path d="M5.45538 22.3754L13.5415 38.4369L21.5538 22.3754L29.6031 38.4369L37.6523 22.3754H42.4154L29.6031 48L21.5538 31.9385L13.5415 48L0.692308 22.3754H5.45538ZM63.9958 22.3754V26.6585H51.1835V33.0831H63.9958V37.3292H51.1835V43.7169H63.9958V48H46.9373V22.3754H63.9958ZM82.3623 26.6585H72.7253V33.0831H82.3623C82.7807 33.0831 83.1869 32.9969 83.5807 32.8246C83.9746 32.6523 84.3192 32.4185 84.6146 32.1231C84.91 31.8277 85.1315 31.4831 85.2792 31.0892C85.4515 30.6954 85.5376 30.2769 85.5376 29.8338C85.5376 29.4154 85.4515 29.0092 85.2792 28.6154C85.1315 28.2215 84.91 27.8769 84.6146 27.5815C84.3192 27.2862 83.9746 27.0646 83.5807 26.9169C83.1869 26.7446 82.7807 26.6585 82.3623 26.6585ZM87.5684 35.1877C89.0699 36.64 89.8207 38.4246 89.8207 40.5415C89.8207 42.56 89.0946 44.32 87.6423 45.8215C86.1899 47.2738 84.4299 48 82.3623 48H68.4792V22.3754H82.3623C84.4299 22.3754 86.1899 23.1138 87.6423 24.5908C89.0946 26.0431 89.8207 27.7908 89.8207 29.8338C89.8207 31.9262 89.0699 33.7108 87.5684 35.1877ZM82.3623 43.7169C82.7807 43.7169 83.1869 43.6431 83.5807 43.4954C83.9746 43.3231 84.3192 43.0892 84.6146 42.7938C84.91 42.4985 85.1315 42.1538 85.2792 41.76C85.4515 41.3662 85.5376 40.96 85.5376 40.5415C85.5376 39.68 85.2176 38.9292 84.5776 38.2892C83.9623 37.6492 83.2238 37.3292 82.3623 37.3292H72.7253V43.7169H82.3623Z" fill="#FFA528"/>
<path d="M130.692 22.3754H134.938V48H130.692V22.3754ZM153.32 26.6585H143.683V33.0831H153.32C153.739 33.0831 154.145 32.9969 154.539 32.8246C154.933 32.6523 155.277 32.4185 155.573 32.1231C155.868 31.8277 156.09 31.4831 156.237 31.0892C156.41 30.6954 156.496 30.2769 156.496 29.8338C156.496 29.4154 156.41 29.0092 156.237 28.6154C156.09 28.2215 155.868 27.8769 155.573 27.5815C155.277 27.2862 154.933 27.0646 154.539 26.9169C154.145 26.7446 153.739 26.6585 153.32 26.6585ZM158.527 35.1877C160.028 36.64 160.779 38.4246 160.779 40.5415C160.779 42.56 160.053 44.32 158.6 45.8215C157.148 47.2738 155.388 48 153.32 48H139.437V22.3754H153.32C155.388 22.3754 157.148 23.1138 158.6 24.5908C160.053 26.0431 160.779 27.7908 160.779 29.8338C160.779 31.9262 160.028 33.7108 158.527 35.1877ZM153.32 43.7169C153.739 43.7169 154.145 43.6431 154.539 43.4954C154.933 43.3231 155.277 43.0892 155.573 42.7938C155.868 42.4985 156.09 42.1538 156.237 41.76C156.41 41.3662 156.496 40.96 156.496 40.5415C156.496 39.68 156.176 38.9292 155.536 38.2892C154.92 37.6492 154.182 37.3292 153.32 37.3292H143.683V43.7169H153.32ZM182.35 22.3754V26.6585H169.538V33.0831H182.35V37.3292H169.538V43.7169H182.35V48H165.292V22.3754H182.35Z" fill="#FFA528"/>
</g>
<defs>
<clipPath id="clip0_227_45">
<rect width="185" height="15" fill="white" transform="translate(0 54)"/>
</clipPath>
<clipPath id="clip1_227_45">
<rect width="185" height="48" fill="white"/>
</clipPath>
</defs>
</svg>
